<svg width="300" height="300" viewBox="0 0 300 300" fill="none" xmlns="http://www.w3.org/2000/svg">
<path d="M138.46 190.34C184.841 190.34 222.44 152.741 222.44 106.36C222.44 59.9791 184.841 22.38 138.46 22.38C92.0791 22.38 54.48 59.9791 54.48 106.36C54.48 152.741 92.0791 190.34 138.46 190.34Z" fill="#FFC000"/>
<path d="M90.2 266.12H85.06L96.16 225.72H104.22L90.2 266.12Z" fill="#2E3744"/>
<path d="M113.2 266.12H108.06L119.16 225.72H127.22L113.2 266.12Z" fill="#2E3744"/>
<path d="M201.94 266.12H207.1L195.98 225.72H187.94L201.94 266.12Z" fill="#2E3744"/>
<path d="M178.96 266.12H184.1L173 225.72H164.94L178.96 266.12Z" fill="#2E3744"/>
<path d="M93.44 186.88L76 123.54H82.74L100.18 186.88H93.44Z" fill="#2E3744"/>
<path d="M157.8 186.88L140.38 123.54H147.1L164.54 186.88H157.8Z" fill="#2E3744"/>
<path d="M81.14 152.88L61.94 82.52C59.98 75.32 65.4 68.22 72.86 68.22H121.74C128.6 68.22 134.6 72.8 136.4 79.4L157.08 155.2H84.18C82.76 155.22 81.5 154.26 81.14 152.88Z" fill="#FF4F4B"/>
<path opacity="0.26" d="M93.06 152.88L73.86 82.52C71.9 75.32 77.32 68.22 84.78 68.22H72.86C65.4 68.22 59.96 75.32 61.94 82.52L81.14 152.88C81.52 154.26 82.76 155.2 84.18 155.2H96.1C94.68 155.22 93.42 154.26 93.06 152.88Z" fill="black"/>
<path d="M195.22 230.1H96.94C93.9 230.1 91.34 227.86 90.96 224.86L87.26 197.2C85.96 187.5 93.52 178.88 103.3 178.88H188.82C198.62 178.88 206.16 187.5 204.86 197.2L201.18 224.86C200.8 227.86 198.26 230.1 195.22 230.1Z" fill="#FF4F4B"/>
<path opacity="0.26" d="M188.84 178.88H103.32C99.66 178.88 96.32 180.08 93.64 182.08C87.4 186.74 90.96 196.74 98.74 196.74H193.4C201.18 196.74 204.74 186.76 198.5 182.08C195.84 180.08 192.5 178.88 188.84 178.88Z" fill="black"/>
<path opacity="0.26" d="M152.04 190.38L127.22 223.44C127.22 223.44 117.24 226.7 115.88 230.1H160.5L174.62 220.56L179.7 230.1H187.96L172.16 188.58L152.04 190.38Z" fill="black"/>
<path d="M291.3 146.32H233.14C230.26 146.32 227.94 144 227.94 141.12V82.96C227.94 80.08 230.26 77.76 233.14 77.76H291.3C294.18 77.76 296.5 80.08 296.5 82.96V141.12C296.52 143.98 294.18 146.32 291.3 146.32Z" fill="#006AD3"/>
<path d="M227.94 126.54V141.64C227.94 144.22 230.04 146.32 232.62 146.32H291.82C294.4 146.32 296.5 144.22 296.5 141.64V126.54H227.94Z" fill="#FFC000"/>
<path d="M255.96 138.9C255.96 140.66 254.58 141.66 251.92 141.66H246.68V131.54H251.62C254.16 131.54 255.44 132.6 255.44 134.16C255.44 135.18 254.92 135.96 254.1 136.38C255.24 136.76 255.96 137.62 255.96 138.9ZM249.02 133.32V135.7H251.34C252.48 135.7 253.1 135.3 253.1 134.5C253.1 133.7 252.48 133.32 251.34 133.32H249.02ZM253.6 138.66C253.6 137.8 252.96 137.4 251.74 137.4H249V139.9H251.74C252.96 139.9 253.6 139.52 253.6 138.66Z" fill="white"/>
<path d="M257.66 137.2V131.54H260V137.12C260 139.04 260.84 139.84 262.26 139.84C263.68 139.84 264.52 139.04 264.52 137.12V131.54H266.84V137.2C266.84 140.18 265.14 141.82 262.26 141.82C259.36 141.84 257.66 140.18 257.66 137.2Z" fill="white"/>
<path d="M273.84 138.08V141.66H271.5V138.04L267.58 131.54H270.06L272.76 136.04L275.46 131.54H277.76L273.84 138.08Z" fill="white"/>
<path d="M281.2 116.72H243.26C241.3 116.72 239.82 114.92 240.22 112.98L244.5 92.46C244.8 91.02 246.08 90 247.54 90H276.92C278.38 90 279.66 91.04 279.96 92.46L284.24 112.98C284.64 114.9 283.16 116.72 281.2 116.72Z" fill="white"/>
<path d="M282 102.22L279.96 92.46C279.66 91.02 278.38 90 276.92 90H247.54C246.08 90 244.8 91.04 244.5 92.46L242.46 102.22C243 102.86 243.6 103.44 244.3 103.92C249.1 107.2 255.36 109.2 262.22 109.2C269.08 109.2 275.34 107.22 280.14 103.92C280.84 103.44 281.46 102.86 282 102.22Z" fill="#C2DBFF"/>
<path d="M276.92 89.98H247.56C246.08 89.98 244.82 91.02 244.52 92.46L244.04 94.78C243.4 97.86 244.7 101.02 247.34 102.74C251.34 105.32 256.54 106.88 262.26 106.88C267.98 106.88 273.18 105.32 277.18 102.74C279.82 101.04 281.1 97.86 280.48 94.78L280 92.46C279.66 91.02 278.38 89.98 276.92 89.98Z" fill="white"/>
<path d="M264.24 103.36H260.22C259.58 103.36 259.06 102.84 259.06 102.2C259.06 101.56 259.58 101.04 260.22 101.04H264.24C264.88 101.04 265.4 101.56 265.4 102.2C265.4 102.82 264.88 103.36 264.24 103.36Z" stroke="#0059E2" stroke-width="1.913" stroke-miterlimit="10"/>
<path d="M270.62 96.1H253.84V91.6C253.84 86.96 257.6 83.22 262.22 83.22C266.86 83.22 270.6 86.98 270.6 91.6V96.1H270.62Z" stroke="white" stroke-width="1.913" stroke-miterlimit="10"/>
<path d="M37.72 195.58C37.72 195.58 38.26 181.56 46.9 181.56C55.54 181.56 58.1 195.58 58.1 195.58" stroke="#0059E2" stroke-width="1.833" stroke-miterlimit="10"/>
<path d="M79.82 265.7H16L24.08 192.3H71.72L79.82 265.7Z" fill="#FF4B85"/>
<path d="M65.5 192.3L57.4 265.7H79.82L71.72 192.3H65.5Z" fill="#FF1F70"/>
<path d="M54.98 195.58C54.98 195.58 54.44 181.56 45.8 181.56C37.18 181.56 34.6 195.58 34.6 195.58" stroke="#0059E2" stroke-width="1.833" stroke-miterlimit="10"/>
<path d="M251.26 215.54C251.26 215.54 239.4 200.22 231.46 202.7C223.52 205.18 228.98 216.8 249.98 216" stroke="#0059E2" stroke-width="1.833" stroke-miterlimit="10"/>
<path d="M253.16 215.54C253.16 215.54 265.02 200.22 272.96 202.7C280.9 205.18 275.44 216.8 254.44 216" stroke="#0059E2" stroke-width="1.833" stroke-miterlimit="10"/>
<path d="M242.04 199.72L251.66 215.4" stroke="#0059E2" stroke-width="1.833" stroke-miterlimit="10"/>
<path d="M262.36 199.72L252.74 215.4" stroke="#0059E2" stroke-width="1.833" stroke-miterlimit="10"/>
<path d="M288.98 214.8H215.44V266.12H288.98V214.8Z" fill="#006AD3"/>
<path d="M290.86 214.8H213.52V229.74H290.86V214.8Z" fill="#006AD3"/>
<path opacity="0.26" d="M258.08 214.8H247.34V266.12H258.08V214.8Z" fill="black"/>
<path d="M257.58 214.8H246.84V266.12H257.58V214.8Z" fill="white"/>
<path opacity="0.26" d="M288.98 239.14L215.44 232.68V229.72H288.98V239.14Z" fill="black"/>
<path d="M206 145.8C206 148.24 207.5 148.24 207.5 150.68C207.5 153.12 206 153.12 206 155.56" stroke="black" stroke-width="1.408" stroke-miterlimit="10"/>
<path d="M210.22 145.8C210.22 148.24 211.72 148.24 211.72 150.68C211.72 153.12 210.22 153.12 210.22 155.56" stroke="black" stroke-width="1.408" stroke-miterlimit="10"/>
<path d="M214.42 145.8C214.42 148.24 215.92 148.24 215.92 150.68C215.92 153.12 214.42 153.12 214.42 155.56" stroke="black" stroke-width="1.408" stroke-miterlimit="10"/>
<path d="M202.28 235.36L205.7 244.84C209.1 255.36 216.88 263.76 226.8 268.62L234.02 272.62C235.18 273.26 234.86 275 233.56 275.2L227.44 276.1C224.06 276.6 220.62 275.7 217.92 273.6L213.7 270.3C212.54 269.68 211.26 269.32 209.94 269.26C207.24 269.12 202.44 268.46 200.86 265.4C198.62 261.08 200.22 255.38 200.22 255.38L189.94 234.58L202.28 235.36Z" fill="#FF7F72"/>
<path d="M153.66 228.48C151.64 229.74 142.74 220.44 142.74 220.44L146.64 215.9L155.24 223.22C155.24 223.22 155.46 227.36 153.66 228.48Z" fill="#2E3744"/>
<path d="M154.82 218.18L140.36 228.66C131.36 235.08 125.7 245.04 124.08 255.96L122.46 264.06C122.2 265.36 120.44 265.58 119.86 264.4L117.14 258.84C115.64 255.76 115.46 252.22 116.66 249L118.52 243.98C118.76 242.68 118.7 241.36 118.36 240.08C117.68 237.48 116.86 232.68 119.28 230.26C122.72 226.82 128.64 226.64 128.64 226.64L145.36 210.56L154.82 218.18Z" fill="#FF7F72"/>
<path d="M140.66 215.04C140.66 215.04 155 224.52 153.66 228.48C153.66 228.48 186.7 207.62 196.3 201.16C205.9 194.7 211.64 184.26 206.84 176.46C202.04 168.66 179.68 164.96 179.68 164.96L140.66 215.04Z" fill="#006AD3"/>
<path opacity="0.26" d="M185.42 191.04C184.62 183.22 180.08 176.74 173.82 172.48L154.7 197.2C158.1 197.38 160.44 197.46 160.44 197.46C160.44 197.46 162.92 209.88 165.1 221.22C171.76 216.98 180.16 211.64 186.92 207.28C186.3 200.2 185.74 194.16 185.42 191.04Z" fill="black"/>
<path opacity="0.26" d="M197.84 200.04C196.14 194.74 191.96 182.14 189.78 178.68C187 174.28 182.68 171.3 178.32 168.5L192.42 203.7C193.92 202.72 195.24 201.84 196.28 201.14C196.82 200.8 197.34 200.42 197.84 200.04Z" fill="black"/>
<path d="M183.1 171.22C183.2 171.34 183.3 171.46 183.4 171.6C183.28 171.46 183.18 171.32 183.06 171.18C183.06 171.18 183.08 171.2 183.1 171.22Z" fill="#006AD3"/>
<path d="M186.1 179.48C186.1 186.56 180.36 192.3 173.28 192.3H131.52C120.62 192.3 107.92 190.38 104.2 178.4C100.48 166.42 105.16 157.3 105.16 157.3L150.52 159.74C150.52 159.74 153.7 161.86 164.48 162.82C170.16 163.32 175.68 165.32 180.12 168.64C181.16 169.4 182.14 170.24 183.04 171.18C184.96 173.4 186.1 176.3 186.1 179.48Z" fill="#006AD3"/>
<path d="M183.04 171.18C182.14 170.26 181.16 169.42 180.12 168.64C181.22 169.32 182.22 170.18 183.04 171.18Z" fill="#FFC000"/>
<path d="M188.92 180.68C187.72 177 185.68 173.84 183.1 171.24C183.2 171.36 183.3 171.48 183.4 171.62C183.28 171.48 183.18 171.34 183.06 171.2C180.72 168.44 177.22 166.7 173.32 166.7C166.24 166.7 160.52 172.44 160.52 179.52C160.52 181.2 160.86 182.82 161.46 184.3L161.48 184.34C161.88 185.32 162.4 186.22 163 187.06L165.96 192.34C165.96 192.34 171.84 205.76 176.62 216.9C181.42 228.04 183.2 237.16 183.2 237.16H206.7C206.66 237.12 192.4 191.22 188.92 180.68Z" fill="#006AD3"/>
<path d="M183.1 171.22C183.2 171.34 183.3 171.46 183.4 171.6C183.28 171.46 183.18 171.32 183.06 171.18C183.06 171.18 183.08 171.2 183.1 171.22Z" fill="#FFC000"/>
<path opacity="0.26" d="M102.76 167.06L138.86 159.1L105.08 157.3C105.08 157.3 103.14 161.12 102.76 167.06Z" fill="black"/>
<path d="M181.58 155.54C181.58 160.28 178.1 164.2 173.54 164.88C173.08 164.96 172.62 164.98 172.14 164.98C167.08 164.98 161.76 158.38 161.42 153.22C161.1 152.04 160.82 150.84 160.56 149.66C159.02 142.64 155.8 125.3 155.8 125.3L159.44 98.88C165.42 100.4 168.12 102.1 170.36 109.2C172.42 115.72 177.82 140.74 177.82 140.74L181.08 152.5L181.36 153.54C181.5 154.2 181.58 154.86 181.58 155.54Z" fill="#FF7F72"/>
<path d="M203.4 108.06L199.58 119.04C199.58 119.04 193.3 141.92 190.42 150.28C187.84 157.76 184.18 164.08 176.94 164.88C176.3 165.02 175.64 165.1 174.96 165.1C170.2 165.1 166.34 161.24 166.34 156.48C166.34 154.02 167.38 151.78 169.04 150.22L177.82 140.74L193.98 117.54C194.86 116.26 195.1 114.66 194.6 113.2L193.66 110.42L197.8 102.1L202.36 105.02C203.36 105.66 203.8 106.94 203.4 108.06Z" fill="#FF7F72"/>
<path d="M177.84 140.76L172.44 148.66" stroke="#FF4F4B" stroke-width="1.973" stroke-miterlimit="10"/>
<path d="M156.08 97.66L158.2 98.3C160.02 98.86 161.38 100.36 161.74 102.22C162.34 105.28 163.52 110.42 165.56 116.56C168.86 126.54 162.92 135.44 156.1 138.22L148.92 159.7H103.92C101.9 159.7 100.18 158.1 100.22 156.08C100.3 152.78 103.56 152.7 104.8 144.96C106.06 137.14 112.82 110.66 119.98 103.16C127.08 95.76 134.04 96 139.4 95.88C145.18 95.78 156.08 97.66 156.08 97.66Z" fill="white"/>
<path d="M114.02 146.62L146.74 140.76" stroke="#919191" stroke-width="1.973" stroke-miterlimit="10"/>
<path d="M130.1 127.7C137.976 127.7 144.36 121.316 144.36 113.44C144.36 105.564 137.976 99.18 130.1 99.18C122.224 99.18 115.84 105.564 115.84 113.44C115.84 121.316 122.224 127.7 130.1 127.7Z" fill="#FF7F72"/>
<path d="M138.46 106.12C137.74 101.8 130.56 99.24 124.68 100.94" stroke="#FF4F4B" stroke-width="1.973" stroke-miterlimit="10"/>
<path d="M125.18 126.8L118.38 111.28L117.24 119.56C118.84 122.9 121.68 125.5 125.18 126.8Z" fill="#FF4F4B"/>
<path d="M164.3 192.28L159.46 181.48" stroke="#002D7D" stroke-width="1.913" stroke-miterlimit="10"/>
<path d="M160.48 189.12L153.66 181.48" stroke="#002D7D" stroke-width="1.913" stroke-miterlimit="10"/>
<path d="M235.6 273.3L227.96 269.08C217.84 264.14 210.1 255.42 206.34 244.84C206.22 244.48 205.88 244.24 205.5 244.22L194.56 243.9C194.04 243.88 193.7 244.42 193.9 244.88L199 255.92C199 255.92 198.14 261.14 200.52 265.7C202.2 268.92 207.28 269.62 210.12 269.76C211.5 269.84 212.88 270.18 214.1 270.84L218.56 274.32C221.42 276.54 225.04 277.5 228.62 276.96L235.1 276C236.48 275.82 236.82 273.98 235.6 273.3Z" fill="#919191"/>
<path d="M122.26 265.76L123.98 257.2C125.64 246.06 131.62 236.04 140.56 229.26C140.86 229.04 141 228.64 140.9 228.26L137.9 217.74C137.76 217.24 137.14 217.06 136.76 217.42L127.78 225.62C127.78 225.62 122.54 226.38 118.92 230.02C116.36 232.58 117.22 237.64 117.94 240.4C118.3 241.74 118.36 243.16 118.1 244.52L116.14 249.84C114.88 253.24 115.08 256.98 116.66 260.24L119.52 266.12C120.12 267.36 121.98 267.14 122.26 265.76Z" fill="#919191"/>
<path d="M219.1 157.06V157.36C219.1 164.5 215.12 170.3 210.2 170.3C208.3 170.3 206.54 169.44 205.1 167.96C202.88 165.7 201.4 161.98 201.32 157.78C201.3 157.64 201.3 157.5 201.3 157.36C201.3 157.26 201.32 157.18 201.32 157.06H219.1Z" stroke="black" stroke-width="1.913" stroke-miterlimit="10"/>
<path d="M205.12 167.96H199.36C196.56 167.96 194.28 165.68 194.28 162.88C194.28 161.48 194.86 160.2 195.78 159.28C196.7 158.36 197.96 157.78 199.38 157.78H201.36C201.42 162 202.88 165.7 205.12 167.96Z" stroke="black" stroke-width="1.913" stroke-miterlimit="10"/>
<path d="M195.98 116.78H185.26C184.44 116.78 183.94 116.1 184.18 115.28L189.74 95.7C189.98 94.88 190.84 94.2 191.68 94.2H202.4C203.22 94.2 203.72 94.88 203.48 95.7L197.92 115.28C197.68 116.1 196.82 116.78 195.98 116.78Z" fill="#2E3744"/>
<path d="M193.1 96.88C192.94 97.46 192.32 97.94 191.74 97.94C191.16 97.94 190.82 97.46 190.98 96.88C191.14 96.3 191.76 95.82 192.34 95.82C192.92 95.82 193.28 96.3 193.1 96.88Z" stroke="white" stroke-width="0.986" stroke-miterlimit="10"/>
<path d="M196.9 97.4H194.68C194.38 97.4 194.22 97.16 194.3 96.88C194.38 96.58 194.68 96.36 194.98 96.36H197.2C197.5 96.36 197.66 96.6 197.58 96.88C197.5 97.18 197.18 97.4 196.9 97.4Z" stroke="white" stroke-width="0.986" stroke-miterlimit="10"/>
<path d="M162.86 88C162.82 90.76 161.92 92.42 159.42 92.5C156.9 92.58 154.7 91.56 154.7 91.56L153.84 97.22L155.72 97.8C155.72 97.8 162.98 114.08 157.42 115C153.52 115.66 150.56 111.54 147.62 107.22C144.62 102.82 144.62 98.8 139 96.04C139 96.04 142.96 95.22 145.38 87.44C147.26 81.38 152.96 70 152.96 70L163.8 73.84L165.18 86.4L162.86 88Z" fill="#FF7F72"/>
<path d="M155.04 91.42C152.24 90.34 149.58 87.32 149.58 87.32" stroke="#FF4F4B" stroke-width="1.973" stroke-miterlimit="10"/>
<path d="M160.44 85.38H163.22V86.66L160.44 85.38Z" fill="#FF4F4B"/>
<path d="M155.1 71.54C155.1 71.54 157.8 75.58 156.44 79.54C155.08 83.5 148.36 83.76 150.86 90.96H139.08C139.08 90.96 138.26 83.5 138.26 77.48C138.26 71.46 141.86 63.1 153.36 67.96C157.32 62.84 166.12 65.98 166.84 72.64C167.56 79.3 165.22 78.92 169.8 81.8C174.38 84.68 173.16 88.94 163.18 87.86C163.18 87.86 163.18 87.38 163.18 82.18C163.22 76.94 160.7 73 155.1 71.54Z" fill="#2E3744"/>
<path d="M146.1 66.82C146.1 70.82 142.86 74.06 138.86 74.06C134.86 74.06 131.62 70.82 131.62 66.82C131.62 62.82 134.86 59.58 138.86 59.58C142.86 59.6 146.1 62.84 146.1 66.82Z" fill="#2E3744"/>
<path d="M146.1 98.42L149.58 100.94" stroke="#FF4F4B" stroke-width="1.973" stroke-miterlimit="10"/>
<path d="M154.2 97.08L153.68 100.56" stroke="#FF4F4B" stroke-width="1.973" stroke-miterlimit="10"/>
<path d="M199.52 118.76C199.52 118.76 197.42 116.34 198.24 112.74C198.24 112.74 192.8 113.1 192.76 112.38C192.72 111.66 199.24 110.72 199.24 110.72C199.24 110.72 191.34 106.4 191.78 105.14C192.22 103.88 200.1 108.6 200.1 108.6C200.1 108.6 192.5 103.56 192.78 102.36C193.04 101.14 200.96 106.36 200.96 106.36L200.32 103.34C200.32 103.34 196.14 99.6 196.82 98.86C197.5 98.12 201.76 101.9 201.76 101.9L204.26 105.18C204.96 106.12 205.08 107.36 204.58 108.4L199.52 118.76Z" fill="#FF7F72"/>
<path d="M138.76 107.32L148.88 159.72L185.5 163.64L193.16 158.86C193.16 158.86 199.94 157.6 199.82 161.32C199.82 161.32 201.38 162.82 199.82 164.2C199.82 164.2 200.18 165.94 199.52 166.48C198.86 167.02 197.72 166.48 197.72 166.48L193.76 166.72C193.76 166.72 198.08 167.26 200.04 169.54C200.04 169.54 198.9 170.08 194.06 168.04C194.06 168.04 190.04 171.52 185.2 169.06C185.2 169.06 160.64 175.76 152.46 177.44C144.28 179.12 132.18 176.24 129.06 161.98C125.94 147.72 118.4 111.28 118.4 111.28L138.76 107.32Z" fill="#FF7F72"/>
<path d="M141.46 121.3L139.36 110.42" stroke="#FF4F4B" stroke-width="1.973" stroke-miterlimit="10"/>
<path d="M67.02 169.56H5.18C3.18 169.56 1.56 167.94 1.56 165.94V130.2C1.56 128.2 3.18 126.58 5.18 126.58H67.02C69.02 126.58 70.64 128.2 70.64 130.2V165.96C70.64 167.96 69 169.56 67.02 169.56Z" fill="#006AD3"/>
<path opacity="0.26" d="M70.64 141.56H1.57999V150.78H70.64V141.56Z" fill="black"/>
<path d="M54.1 160.04C54.1 163.62 51.2 166.5 47.64 166.5C44.06 166.5 41.18 163.6 41.18 160.04C41.18 156.48 44.08 153.58 47.64 153.58C51.2 153.56 54.1 156.46 54.1 160.04Z" fill="#FFC000"/>
<path d="M63.06 160.04C63.06 163.62 60.16 166.5 56.6 166.5C53.02 166.5 50.14 163.6 50.14 160.04C50.14 156.48 53.04 153.58 56.6 153.58C60.18 153.56 63.06 156.46 63.06 160.04Z" fill="#FF4F4B"/>
<path d="M52.12 164.68C53.2135 164.68 54.1 162.603 54.1 160.04C54.1 157.477 53.2135 155.4 52.12 155.4C51.0265 155.4 50.14 157.477 50.14 160.04C50.14 162.603 51.0265 164.68 52.12 164.68Z" fill="white"/>
<path d="M25.46 132.78H8.41999C7.63999 132.78 7.01999 132.16 7.01999 131.38C7.01999 130.6 7.63999 129.98 8.41999 129.98H25.44C26.22 129.98 26.84 130.6 26.84 131.38C26.86 132.16 26.24 132.78 25.46 132.78Z" stroke="white" stroke-width="1.973" stroke-miterlimit="10"/>
<path d="M36.84 138.16H8.43998C7.65998 138.16 7.03998 137.54 7.03998 136.76C7.03998 135.98 7.65998 135.36 8.43998 135.36H36.84C37.62 135.36 38.24 135.98 38.24 136.76C38.24 137.54 37.6 138.16 36.84 138.16Z" stroke="white" stroke-width="1.973" stroke-miterlimit="10"/>
</svg>
