<svg width="300" height="300" viewBox="0 0 300 300" fill="none" xmlns="http://www.w3.org/2000/svg">
<g clip-path="url(#clip0_2_692)">
<path fill-rule="evenodd" clip-rule="evenodd" d="M150.517 202.682C147.523 200.28 142.985 200.019 140.391 202.099L128.04 212.003C125.446 214.083 125.772 217.722 128.767 220.123L173.635 256.101C176.632 258.505 181.168 258.765 183.762 256.685L196.113 246.781C198.707 244.701 198.383 241.064 195.385 238.66L150.517 202.682Z" fill="#E1E3EE"/>
<path fill-rule="evenodd" clip-rule="evenodd" d="M135.675 21.1162C136.911 20.1175 138.524 20.2065 140.288 21.621L184.198 56.8317C188.082 59.9456 191.235 68.3125 191.235 75.5042V239.089C191.235 242.625 190.473 245.222 189.237 246.58L189.25 246.631L181.405 252.921L177.748 239.105L141.659 210.167C137.776 207.053 134.623 198.686 134.623 191.494L133.252 54.1646L127.83 27.4066L135.675 21.1162Z" fill="#7887DA"/>
<mask id="mask0_2_692" style="mask-type:luminance" maskUnits="userSpaceOnUse" x="127" y="20" width="65" height="233">
<path d="M135.675 21.1162C136.911 20.1175 138.524 20.2065 140.288 21.621L184.198 56.8317C188.082 59.9456 191.235 68.3125 191.235 75.5042V239.089C191.235 242.625 190.473 245.222 189.237 246.58L189.25 246.631L181.405 252.921L177.748 239.105L141.659 210.167C137.776 207.053 134.623 198.686 134.623 191.494L133.252 54.1646L127.83 27.4066L135.675 21.1162Z" fill="white"/>
</mask>
<g mask="url(#mask0_2_692)">
<path d="M193.877 71.7367L180.216 82.6911V254.463L193.877 243.509V71.7367Z" fill="#4B61DC"/>
</g>
<path fill-rule="evenodd" clip-rule="evenodd" d="M209.748 102.937C211.99 97.5434 210.659 90.6373 206.774 87.5222L162.865 52.3122C158.981 49.1982 154.008 51.049 151.766 56.4426L100.765 179.131C98.5228 184.525 99.8555 191.432 103.739 194.546L147.648 229.756C151.533 232.871 156.505 231.02 158.747 225.626L209.748 102.937Z" fill="#10243E"/>
<path fill-rule="evenodd" clip-rule="evenodd" d="M180.216 89.8374C180.216 83.7185 177.409 76.0604 173.949 72.7442L134.839 35.2612C131.381 31.9461 128.572 34.2226 128.572 40.3415V190.845C128.572 196.964 131.381 204.624 134.839 207.939L173.949 245.422C177.409 248.738 180.216 246.46 180.216 240.341V89.8374Z" fill="#E1E3EE"/>
<mask id="mask1_2_692" style="mask-type:luminance" maskUnits="userSpaceOnUse" x="128" y="34" width="53" height="213">
<path d="M180.216 101.349C180.216 95.6656 177.409 87.6928 173.949 83.5525L134.839 36.7539C131.381 32.615 128.572 33.8687 128.572 39.5517V179.334C128.572 185.017 131.381 192.992 134.839 197.131L173.949 243.929C177.409 248.069 180.216 246.814 180.216 241.131V101.349Z" fill="white"/>
</mask>
<g mask="url(#mask1_2_692)">
<path d="M180.216 75.2329L128.572 25.4472V60.3608L180.216 110.146V75.2329Z" fill="#F2F3F7"/>
</g>
<path fill-rule="evenodd" clip-rule="evenodd" d="M177.374 120.438C177.374 119.079 176.778 117.497 176.044 116.908L133.967 83.168C133.233 82.579 132.637 83.2051 132.637 84.5647V98.7406C132.637 100.1 133.233 101.682 133.967 102.271L176.044 136.011C176.778 136.6 177.374 135.974 177.374 134.614V120.438Z" fill="#F2F3F7"/>
<path fill-rule="evenodd" clip-rule="evenodd" d="M174.147 124.937C174.147 121.921 172.825 118.412 171.196 117.106L138.813 91.139C137.184 89.833 135.862 91.2214 135.862 94.2375C135.862 97.2536 137.184 100.763 138.813 102.069L171.196 128.036C172.825 129.342 174.147 127.954 174.147 124.937Z" fill="#E1E3EE"/>
<path fill-rule="evenodd" clip-rule="evenodd" d="M155.006 109.588C155.006 107.208 153.962 104.439 152.677 103.409L139.06 92.4896C137.775 91.459 136.731 92.5545 136.731 94.9344C136.731 97.3141 137.775 100.083 139.06 101.113L152.677 112.033C153.962 113.063 155.006 111.968 155.006 109.588Z" fill="#7887DA"/>
<path fill-rule="evenodd" clip-rule="evenodd" d="M177.374 225.269C177.374 223.909 176.778 222.328 176.044 221.739L133.967 187.999C133.233 187.41 132.637 188.036 132.637 189.395V203.571C132.637 204.931 133.233 206.513 133.967 207.102L176.044 240.841C176.778 241.43 177.374 240.805 177.374 239.445V225.269Z" fill="#F2F3F7"/>
<path d="M115.274 188.19C117.213 189.745 119.571 189.114 120.54 186.782C121.51 184.45 120.724 181.299 118.785 179.745C116.846 178.19 114.488 178.82 113.519 181.152C112.549 183.484 113.335 186.635 115.274 188.19Z" fill="#4B61DC"/>
<path d="M125.624 196.489C127.563 198.044 129.92 197.414 130.89 195.081C131.859 192.749 131.073 189.598 129.135 188.044C127.196 186.489 124.838 187.119 123.869 189.451C122.899 191.783 123.685 194.934 125.624 196.489Z" fill="#4B61DC"/>
<path d="M135.974 204.788C137.913 206.343 140.27 205.713 141.24 203.381C142.209 201.049 141.423 197.898 139.484 196.343C137.545 194.788 135.188 195.418 134.218 197.75C133.249 200.082 134.035 203.233 135.974 204.788Z" fill="#4B61DC"/>
<path d="M146.323 213.087C148.262 214.642 150.62 214.012 151.589 211.68C152.559 209.348 151.773 206.197 149.834 204.642C147.895 203.087 145.537 203.717 144.568 206.05C143.599 208.382 144.384 211.533 146.323 213.087Z" fill="#4B61DC"/>
<path fill-rule="evenodd" clip-rule="evenodd" d="M177.374 145.489C177.374 144.074 176.754 142.428 175.99 141.816L134.021 108.162C133.257 107.549 132.637 108.2 132.637 109.615V140.073C132.637 141.488 133.257 143.134 134.021 143.746L175.99 177.4C176.754 178.013 177.374 177.362 177.374 175.947V145.489Z" fill="#F2F3F7"/>
<path fill-rule="evenodd" clip-rule="evenodd" d="M177.374 185.304C177.374 183.889 176.754 182.243 175.99 181.631L134.021 147.977C133.257 147.365 132.637 148.016 132.637 149.431V179.889C132.637 181.304 133.257 182.95 134.021 183.562L175.99 217.216C176.754 217.828 177.374 217.177 177.374 215.763V185.304Z" fill="#F2F3F7"/>
<path fill-rule="evenodd" clip-rule="evenodd" d="M161.963 64.819C161.963 62.7162 161.041 60.2701 159.904 59.3591L148.886 50.524C147.751 49.6135 146.829 50.5812 146.829 52.684C146.829 54.7864 147.751 57.2326 148.886 58.1431L159.904 66.9782C161.041 67.8891 161.963 66.9214 161.963 64.819Z" fill="#10243E"/>
<path fill-rule="evenodd" clip-rule="evenodd" d="M167.685 86.4523C167.685 84.3495 166.763 81.903 165.625 80.9907L143.163 62.9793C142.028 62.0689 141.106 63.0366 141.106 65.1393C141.106 67.2417 142.028 69.688 143.163 70.5984L165.625 88.6098C166.763 89.5221 167.685 88.5547 167.685 86.4523Z" fill="#4B61DC"/>
<path fill-rule="evenodd" clip-rule="evenodd" d="M176.338 55.1118L176.338 55.1121L176.252 53.3889L172.494 50.9954L169.949 48.8876C168.807 47.9418 167.154 47.6669 166.186 48.242L165.39 47.7355L165.477 49.4587L165.478 49.4594C165.483 50.0557 165.835 50.7258 166.508 51.2826L171.868 55.7215C173.052 56.7018 174.785 56.9615 175.734 56.3006C176.156 56.007 176.353 55.5809 176.338 55.1118Z" fill="#4B61DC"/>
<path fill-rule="evenodd" clip-rule="evenodd" d="M88.8838 242.738C96.8576 235.646 103.482 235.399 111.557 243.804C117.741 250.241 129.234 244.75 130.099 251.333C132.734 271.376 112.262 260.595 103.662 253.698C95.062 246.802 81.6289 249.19 88.8838 242.738Z" fill="#E1E3EE"/>
<path fill-rule="evenodd" clip-rule="evenodd" d="M119.072 243.998C119.072 243.998 127.856 243.438 131.476 241.907C135.097 240.376 136.298 245.712 131.849 249.838C127.4 253.965 121.763 256.425 120.255 254.289C118.748 252.153 119.072 243.998 119.072 243.998Z" fill="#10243E"/>
<path fill-rule="evenodd" clip-rule="evenodd" d="M121.222 178.02C121.222 178.02 128.211 225.737 128.739 243.597C128.739 243.597 122.993 253.559 113.539 247.562C113.539 247.562 110.087 195.608 106.251 181.175C106.251 181.175 111.173 173.841 121.222 178.02Z" fill="#4B61DC"/>
<mask id="mask2_2_692" style="mask-type:luminance" maskUnits="userSpaceOnUse" x="106" y="176" width="23" height="74">
<path d="M121.222 178.02C121.222 178.02 128.211 225.737 128.739 243.597C128.739 243.597 122.993 253.559 113.539 247.562C113.539 247.562 110.087 195.608 106.251 181.175C106.251 181.175 111.173 173.841 121.222 178.02Z" fill="white"/>
</mask>
<g mask="url(#mask2_2_692)">
<path fill-rule="evenodd" clip-rule="evenodd" d="M123.084 184.476L123.626 189.081C123.626 189.081 116.28 198.761 107.176 193.688L106.251 185.435L123.084 184.476Z" fill="#10243E"/>
</g>
<path fill-rule="evenodd" clip-rule="evenodd" d="M88.0646 235.618C88.0646 235.618 96.6893 237.304 100.307 236.863C103.925 236.422 104.843 241.382 100.29 243.885C95.7362 246.388 90.0999 247.142 88.7272 244.902C87.3545 242.663 88.0646 235.618 88.0646 235.618Z" fill="#10243E"/>
<path fill-rule="evenodd" clip-rule="evenodd" d="M103.953 174.09C103.953 174.09 104.574 219.106 102.805 235.733C102.805 235.733 96.6291 241.771 85.2639 234.716C85.2639 234.716 89.1482 184.673 86.8579 169.446C86.8579 169.446 93.3413 165.174 103.953 174.09Z" fill="#4B61DC"/>
<mask id="mask3_2_692" style="mask-type:luminance" maskUnits="userSpaceOnUse" x="85" y="168" width="20" height="70">
<path d="M103.758 174.725C103.758 174.725 104.99 219.41 103.403 235.83C103.403 235.83 97.1743 241.556 85.4709 234.072C85.4709 234.072 88.7748 184.591 86.2331 169.387C86.2331 169.387 92.7994 165.426 103.758 174.725Z" fill="white"/>
</mask>
<g mask="url(#mask3_2_692)">
<path fill-rule="evenodd" clip-rule="evenodd" d="M105.384 180.835L106.902 189.963C106.902 189.963 99.4422 195.194 88.1587 180.631L88.1699 173.614L105.384 180.835Z" fill="#10243E"/>
</g>
<path fill-rule="evenodd" clip-rule="evenodd" d="M124.948 135.467C128.271 138.638 128.369 145.102 128.397 151.568C128.42 156.646 125.314 165.928 125.314 165.928L128.263 185.898C128.263 185.898 102.26 198.769 86.3085 170.84L93.2331 152.071L99.275 125.378C99.275 125.378 120.636 131.354 124.948 135.467Z" fill="#7887DA"/>
<path fill-rule="evenodd" clip-rule="evenodd" d="M155.143 157.779C155.143 157.779 151.063 156.883 149.641 152.436C149.641 152.436 150.361 147.081 152.365 144.239C154.369 141.397 155.772 141.789 158.376 142.071C160.98 142.352 160.717 145.052 159.048 145.068C157.643 145.082 156.59 145.41 156.676 145.904C156.676 145.904 158.349 146.169 159.908 148.366C161.467 150.563 159.41 152.759 159.41 152.759C159.41 152.759 160.648 155.598 158.21 155.9C158.21 155.9 157.919 157.822 155.143 157.779Z" fill="#88DAFF"/>
<path fill-rule="evenodd" clip-rule="evenodd" d="M125.736 136.056C125.736 136.056 132.439 148.372 135.721 153.024C137.356 155.341 145.278 155.766 149.775 151.686C149.775 151.686 154.44 153.252 155.431 160.646C156.057 165.313 155.381 170.736 149.564 172.065C149.564 172.065 142.437 175.394 133.379 168.966C127.074 164.491 122.208 152.963 118.722 143.215C118.722 143.215 120.355 134.977 125.736 136.056Z" fill="#7887DA"/>
<path fill-rule="evenodd" clip-rule="evenodd" d="M126.39 162.573C126.723 162.096 124.826 159.63 123.681 157.088C122.762 155.048 121.191 151.156 120.805 149.186C120.805 149.186 119.418 155.661 121.489 159.863C123.529 164.002 125.871 163.318 126.39 162.573Z" fill="#10243E"/>
<path d="M119.697 133.581C126.769 133.581 132.501 125.619 132.501 115.797C132.501 105.976 126.769 98.0135 119.697 98.0135C112.625 98.0135 106.893 105.976 106.893 115.797C106.893 125.619 112.625 133.581 119.697 133.581Z" fill="#88DAFF"/>
<path fill-rule="evenodd" clip-rule="evenodd" d="M130.694 113.306C130.694 113.306 133.079 111.515 134.22 112.955C135.36 114.394 131.337 118.716 131.337 118.716L130.694 113.306Z" fill="#88DAFF"/>
<path fill-rule="evenodd" clip-rule="evenodd" d="M102.417 100.405C102.417 100.405 99.6443 102.247 98.5605 107.677C97.4767 113.107 96.2203 118.012 92.867 118.515C89.5134 119.017 86.1504 125.968 87.7264 131.007C87.7264 131.007 81.6334 131.556 82.1185 142.082C82.6036 152.608 89.355 154.335 92.9526 152.301C92.9526 152.301 96.2165 162.341 103.377 157.094C103.377 157.094 112.709 161.965 115.013 152.271C115.013 152.271 124.32 149.799 121.079 139.187C121.079 139.187 125.996 135.125 123.366 128.183C120.736 121.242 121.659 117.967 121.659 117.967C121.659 117.967 124.695 115.225 124.17 109.697C124.17 109.697 132.846 104.388 130.623 95.5939C128.399 86.8 120.626 84.2745 117.611 92.8346C116.461 88.1859 105.41 86.8768 102.417 100.405Z" fill="#10243E"/>
<path fill-rule="evenodd" clip-rule="evenodd" d="M193.836 83.3223C194.436 82.8543 195.221 82.8946 196.079 83.5545L211.36 95.3061C213.246 96.7557 214.775 100.651 214.775 103.999V125.877C214.775 127.698 214.323 128.985 213.606 129.546C213.597 129.552 213.591 129.558 213.583 129.564L209.162 132.963L205.813 125.051L196.079 117.564C194.194 116.115 192.663 112.22 192.663 108.872V93.9821L189.547 86.6202L193.836 83.3223Z" fill="#40C3FD"/>
<path fill-rule="evenodd" clip-rule="evenodd" d="M194.522 95.0465C195.611 92.5357 194.998 89.3459 193.151 87.9261L177.725 76.0628C175.88 74.6441 173.499 75.5311 172.411 78.0419L165.299 94.4504C164.21 96.9614 164.824 100.152 166.669 101.57L182.095 113.434C183.941 114.853 186.322 113.966 187.41 111.455L194.522 95.0465Z" fill="#88DAFF"/>
<path d="M194.528 108.264L191.871 106.134V114.293L194.528 116.423V108.264Z" fill="white"/>
<path d="M198.293 107.782L195.637 105.652V117.312L198.293 119.442V107.782Z" fill="white"/>
<path d="M202.059 105.654L199.403 103.524V120.332L202.059 122.462V105.654Z" fill="white"/>
<path d="M205.824 112.346L203.168 110.216V123.351L205.824 125.481V112.346Z" fill="white"/>
<path fill-rule="evenodd" clip-rule="evenodd" d="M193.836 126.021C194.436 125.553 195.221 125.594 196.079 126.254L211.36 138.005C213.246 139.455 214.775 143.35 214.775 146.698V168.576C214.775 170.397 214.323 171.684 213.606 172.245C213.597 172.251 213.591 172.257 213.583 172.263L209.162 175.662L205.813 167.75L196.079 160.264C194.194 158.814 192.663 154.919 192.663 151.571V136.681L189.547 129.319L193.836 126.021Z" fill="#40C3FD"/>
<path fill-rule="evenodd" clip-rule="evenodd" d="M194.522 137.746C195.611 135.235 194.998 132.045 193.151 130.625L177.725 118.762C175.88 117.343 173.499 118.23 172.411 120.741L165.299 137.15C164.21 139.661 164.824 142.851 166.669 144.269L182.095 156.133C183.941 157.553 186.322 156.665 187.41 154.154L194.522 137.746Z" fill="#88DAFF"/>
<path fill-rule="evenodd" clip-rule="evenodd" d="M194.414 143.818L198.755 143.278L203.097 150.781L198.755 151.318L194.414 143.818ZM198.324 152.172V160.212L193.982 152.71V144.669L198.324 152.172ZM203.528 152.324V160.364L199.187 160.904V152.864L203.528 152.324Z" fill="white"/>
<path fill-rule="evenodd" clip-rule="evenodd" d="M193.836 167.986C194.436 167.518 195.221 167.558 196.079 168.218L211.36 179.969C213.246 181.419 214.775 185.314 214.775 188.662V210.54C214.775 212.361 214.323 213.648 213.606 214.209C213.597 214.215 213.591 214.221 213.583 214.227L209.162 217.626L205.813 209.714L196.079 202.228C194.194 200.778 192.663 196.883 192.663 193.535V178.645L189.547 171.283L193.836 167.986Z" fill="#40C3FD"/>
<path fill-rule="evenodd" clip-rule="evenodd" d="M194.522 179.71C195.611 177.199 194.998 174.009 193.151 172.589L177.725 160.726C175.88 159.307 173.499 160.194 172.411 162.705L165.299 179.114C164.21 181.625 164.824 184.815 166.669 186.234L182.095 198.097C183.941 199.517 186.322 198.629 187.41 196.118L194.522 179.71Z" fill="#88DAFF"/>
<path fill-rule="evenodd" clip-rule="evenodd" d="M202.456 188.64C202.456 188.64 202.964 189.431 202.561 191.29C202.082 193.51 201.632 196.73 201.819 199.423C202.013 202.202 202.655 203.735 202.655 203.735C199.683 202.935 198.078 202.068 195.183 199.488C195.183 199.488 194.308 197.907 194.222 195.117C194.121 191.892 195.2 188.298 195.5 185.726C195.682 184.183 195.117 183.157 195.117 183.157C197.808 184.75 200.062 186.026 202.456 188.64ZM196.365 194.593C196.365 194.593 197.358 195.35 198.432 196.071C198.565 196.159 198.722 196.075 198.781 195.882C198.843 195.689 198.786 195.461 198.653 195.372C197.592 194.661 196.611 193.912 196.611 193.912C196.483 193.813 196.323 193.886 196.255 194.073C196.188 194.261 196.237 194.494 196.365 194.593ZM196.778 189.87C196.778 189.87 199.45 191.907 200.782 192.482C200.922 192.542 201.067 192.426 201.109 192.222C201.151 192.019 201.072 191.805 200.932 191.744C199.629 191.184 197.024 189.189 197.024 189.189C196.894 189.09 196.736 189.163 196.668 189.35C196.599 189.538 196.648 189.771 196.778 189.87ZM196.441 191.951C196.441 191.951 199.113 193.989 200.445 194.564C200.585 194.624 200.733 194.507 200.772 194.304C200.814 194.101 200.735 193.887 200.595 193.826C199.292 193.265 196.687 191.271 196.687 191.271C196.559 191.172 196.4 191.245 196.331 191.432C196.262 191.62 196.314 191.853 196.441 191.951Z" fill="white"/>
<path d="M146.638 217.859L117.735 241.034L141.339 259.962L170.242 236.786L146.638 217.859Z" fill="#88DAFF"/>
<path d="M170.239 236.791L141.339 259.965V289.029L170.239 265.855V236.791Z" fill="#40C3FD"/>
<path d="M141.339 259.959L117.735 241.032V270.095L141.339 289.023V259.959Z" fill="#40C3FD"/>
<path d="M131.993 252.465L127.082 248.527V261.801L131.993 265.739V252.465Z" fill="#E1E3EE"/>
<path d="M156.053 225.409L127.151 248.584L131.993 252.466L160.894 229.291L156.053 225.409Z" fill="#F2F3F7"/>
<path d="M172.578 280.311C175.792 280.311 178.398 278.768 178.398 276.864C178.398 274.96 175.792 273.417 172.578 273.417C169.363 273.417 166.757 274.96 166.757 276.864C166.757 278.768 169.363 280.311 172.578 280.311Z" fill="#E1E3EE"/>
<path d="M180.429 283.16C184.766 283.16 188.281 281.24 188.281 278.871C188.281 276.502 184.766 274.581 180.429 274.581C176.093 274.581 172.577 276.502 172.577 278.871C172.577 281.24 176.093 283.16 180.429 283.16Z" fill="#E1E3EE"/>
<path fill-rule="evenodd" clip-rule="evenodd" d="M167.894 271.134C166.441 266.938 161.521 257.285 164.542 251.886C167.335 246.894 171.096 253.736 171.902 259.321C171.902 259.321 169.507 235.349 175.313 234.895C181.118 234.441 179.124 250.015 178.093 256.484C178.093 256.484 183.135 243.661 186.649 248.26C190.163 252.859 178.671 272.905 178.671 272.905C177.904 274.809 175.773 277.036 173.259 277.058C171.179 277.075 168.884 273.993 167.894 271.134Z" fill="#7887DA"/>
<path fill-rule="evenodd" clip-rule="evenodd" d="M175.593 240.666C175.604 240.439 175.745 240.266 175.908 240.281C176.071 240.295 176.195 240.491 176.185 240.717C176.185 240.717 174.984 267.035 173.161 277.274C173.122 277.495 172.962 277.629 172.803 277.575C172.644 277.52 172.547 277.297 172.586 277.077C174.401 266.878 175.593 240.666 175.593 240.666Z" fill="#F2F3F7"/>
<path fill-rule="evenodd" clip-rule="evenodd" d="M167.994 258.492C167.959 258.271 168.06 258.051 168.22 258.003C168.38 257.955 168.538 258.096 168.573 258.318C168.573 258.318 169.166 262.11 170.448 265.658C171.282 267.967 172.402 270.185 173.861 271.113C174.01 271.208 174.075 271.453 174.007 271.659C173.939 271.866 173.763 271.956 173.614 271.862C172.045 270.863 170.815 268.51 169.918 266.027C168.602 262.386 167.994 258.492 167.994 258.492Z" fill="#F2F3F7"/>
<path fill-rule="evenodd" clip-rule="evenodd" d="M174.491 266.371C174.339 266.454 174.166 266.351 174.106 266.14C174.046 265.929 174.12 265.69 174.272 265.606C174.272 265.606 180.597 262.132 183.021 255.157C183.092 254.952 183.269 254.866 183.417 254.965C183.564 255.064 183.626 255.31 183.555 255.514C181.04 262.75 174.491 266.371 174.491 266.371Z" fill="#F2F3F7"/>
<path fill-rule="evenodd" clip-rule="evenodd" d="M181.194 267.093C184.703 267.038 183.736 270.403 185.944 272.386C187.967 274.203 187.921 278.173 184.679 278.993C181.437 279.812 178.687 279.683 176.445 278.741C172.4 277.04 173.206 273.036 175.792 271.866C177.933 270.899 178.59 267.133 181.194 267.093Z" fill="#10243E"/>
<path d="M182.113 271.722C182.561 271.722 182.923 271.237 182.923 270.638C182.923 270.04 182.561 269.555 182.113 269.555C181.666 269.555 181.303 270.04 181.303 270.638C181.303 271.237 181.666 271.722 182.113 271.722Z" fill="#E1E3EE"/>
<path d="M183.331 273.009C183.557 273.009 183.739 272.777 183.739 272.49C183.739 272.204 183.557 271.972 183.331 271.972C183.106 271.972 182.924 272.204 182.924 272.49C182.924 272.777 183.106 273.009 183.331 273.009Z" fill="#E1E3EE"/>
<path d="M115.043 74.7577C124.146 62.1146 124.146 41.6161 115.043 28.973C105.94 16.3299 91.1814 16.3299 82.0784 28.973C72.9753 41.6161 72.9753 62.1146 82.0784 74.7577C91.1814 87.4008 105.94 87.4008 115.043 74.7577Z" fill="#4B61DC"/>
<path fill-rule="evenodd" clip-rule="evenodd" d="M86.117 55.5059C84.9393 53.8701 84.9393 51.2138 86.117 49.5781C87.2949 47.9421 89.2073 47.9423 90.385 49.5781L96.3595 57.876L106.735 43.4655C107.913 41.8298 109.825 41.8298 111.003 43.4655C112.181 45.1013 112.181 47.7576 111.003 49.3933L98.4935 66.7677C97.3149 68.4046 95.4041 68.4046 94.2255 66.7677L86.117 55.5059Z" fill="#F2F3F7"/>
<path fill-rule="evenodd" clip-rule="evenodd" d="M120.536 78.2057C120.792 79.3879 120.56 80.6718 119.932 81.5443C119.303 82.4167 118.379 82.74 117.528 82.3833C111.242 79.7504 100.294 75.1645 100.294 75.1645L115.34 54.2666C115.34 54.2666 118.64 69.475 120.536 78.2057Z" fill="#4B61DC"/>
</g>
<defs>
<clipPath id="clip0_2_692">
<rect width="300" height="300" fill="white"/>
</clipPath>
</defs>
</svg>
