<svg width="300" height="300" viewBox="0 0 300 300" fill="none" xmlns="http://www.w3.org/2000/svg">
<mask id="mask0_2_40" style="mask-type:luminance" maskUnits="userSpaceOnUse" x="0" y="0" width="300" height="300">
<path d="M300 0.0809631H0V299.981H300V0.0809631Z" fill="white"/>
</mask>
<g mask="url(#mask0_2_40)">
<path d="M45.0984 59.8142C45.0984 56.233 48.0025 53.3298 51.5849 53.3298H97.643V121.615H51.5849C48.0025 121.615 45.0984 118.712 45.0984 115.131V59.8142Z" fill="#FAC22F"/>
<path fill-rule="evenodd" clip-rule="evenodd" d="M55.3524 69.088H62.5716L63.1137 72.8399L66.6814 99.945C66.7875 100.751 67.4753 101.354 68.2891 101.354H97.6431V72.8399H70.2448L69.3065 68.3375L68.6371 65.1257C68.4805 64.374 67.8177 63.8352 67.0496 63.8352H55.3524C54.4568 63.8352 53.7308 64.561 53.7308 65.4563V67.4669C53.7308 68.3622 54.4568 69.088 55.3524 69.088ZM73.998 114.111C76.6927 114.111 78.8771 111.928 78.8771 109.234C78.8771 106.539 76.6927 104.356 73.998 104.356C71.3033 104.356 69.1189 106.539 69.1189 109.234C69.1189 111.928 71.3033 114.111 73.998 114.111Z" fill="#E9B11D"/>
<path d="M256.778 231.172C254.076 230.571 252.149 232.423 251.524 233.423L221.123 279.196H241.39C241.265 277.82 242.816 273.944 250.022 269.441C259.03 263.813 259.03 260.812 258.28 255.559C257.529 250.307 256.778 245.429 259.03 240.927C261.282 236.424 260.156 231.922 256.778 231.172Z" fill="#53B3CC"/>
<path d="M228.254 229.67C225.552 231.172 223.625 233.798 222.999 234.924L219.997 266.44L210.989 278.821H226.377C243.642 275.82 241.39 267.566 244.017 259.312C246.645 251.057 256.028 254.058 252.65 239.05C249.272 224.043 254.526 219.541 256.028 216.164C257.529 212.787 265.786 206.784 262.783 199.281C259.781 191.776 253.4 195.153 250.773 197.404C248.146 199.655 248.521 203.782 240.639 206.033C232.758 208.285 232.758 216.539 232.758 218.79C232.758 221.041 231.632 227.795 228.254 229.67Z" fill="#FAC22F"/>
<path fill-rule="evenodd" clip-rule="evenodd" d="M220.719 278.223C227.49 254.532 241.033 222.175 254.987 202.193L256.317 203.121C242.498 222.909 229.018 255.085 222.278 278.669L220.719 278.223Z" fill="#E9B11D"/>
<path fill-rule="evenodd" clip-rule="evenodd" d="M227.198 5.36061C227.969 4.0824 229.631 3.67088 230.909 4.44145L238.495 9.01271C239.773 9.78328 240.185 11.4441 239.414 12.7224C238.783 13.7694 238.944 15.1012 239.723 16.0443C241.904 18.6872 243.543 21.6909 244.597 24.8786C244.982 26.0408 246.025 26.8871 247.249 26.9103C248.745 26.9386 249.934 28.1733 249.906 29.6682L249.738 38.5145C249.71 40.0075 248.476 41.195 246.983 41.1667C245.76 41.1436 244.688 41.9482 244.259 43.0925C243.675 44.6512 242.94 46.1786 242.049 47.6556C241.158 49.1326 240.15 50.4957 239.044 51.7399C238.232 52.6533 238.021 53.9772 238.612 55.0469C239.335 56.354 238.86 57.9991 237.552 58.7211L229.805 62.9993C228.496 63.7223 226.848 63.2473 226.125 61.9387C225.533 60.8671 224.297 60.3401 223.09 60.5429C219.778 61.0992 216.355 61.0522 212.999 60.3581C211.801 60.1105 210.548 60.5892 209.916 61.6363C209.145 62.9144 207.484 63.326 206.205 62.5555L198.62 57.9842C197.341 57.2136 196.93 55.5527 197.701 54.2745C198.332 53.2275 198.17 51.8957 197.392 50.9525C195.211 48.3097 193.572 45.3061 192.517 42.1183C192.133 40.9561 191.09 40.1096 189.865 40.0865C188.37 40.0583 187.181 38.8235 187.209 37.3285L187.376 28.4825C187.405 26.9894 188.638 25.8019 190.132 25.8301C191.354 25.8533 192.427 25.0487 192.856 23.9042C193.44 22.3457 194.175 20.8183 195.066 19.3413C195.957 17.8643 196.964 16.5013 198.07 15.2571C198.883 14.3436 199.093 13.0197 198.502 11.95C197.78 10.6429 198.255 8.99775 199.562 8.27566L207.309 3.99756C208.618 3.2746 210.266 3.74949 210.989 5.05826C211.581 6.12974 212.817 6.6568 214.025 6.45397C217.337 5.89765 220.759 5.94466 224.116 6.63876C225.313 6.88645 226.567 6.40766 227.198 5.36061ZM231.842 41.5047C227.419 48.8392 217.885 51.2006 210.548 46.779C203.211 42.3573 200.849 32.8269 205.272 25.4922C209.695 18.1577 219.229 15.7962 226.566 20.218C233.903 24.6396 236.265 34.17 231.842 41.5047Z" fill="#F15846"/>
<path d="M97.6431 42.1658C97.6431 35.8986 102.725 30.8182 108.994 30.8182H211.648C217.917 30.8182 223 35.8986 223 42.1658V267.849C223 274.116 217.917 279.196 211.648 279.196H108.994C102.725 279.196 97.6431 274.116 97.6431 267.849V42.1658Z" fill="#E5E5E5"/>
<path fill-rule="evenodd" clip-rule="evenodd" d="M96.8323 42.1657C96.8323 35.451 102.277 30.0077 108.994 30.0077H211.648C218.365 30.0077 223.81 35.4511 223.81 42.1657V267.849C223.81 274.563 218.365 280.007 211.648 280.007H108.994C102.277 280.007 96.8323 274.563 96.8323 267.849V42.1657ZM108.994 31.6288C103.173 31.6288 98.4539 36.3463 98.4539 42.1657V267.849C98.4539 273.669 103.173 278.386 108.994 278.386H211.648C217.47 278.386 222.189 273.669 222.189 267.849V42.1657C222.189 36.3463 217.47 31.6288 211.648 31.6288H108.994Z" fill="#3E3D3D"/>
<path d="M102.147 43.4259C102.147 38.9494 105.777 35.3205 110.255 35.3205H210.388C214.866 35.3205 218.496 38.9494 218.496 43.4259V260.585C218.496 265.062 214.866 268.691 210.388 268.691H110.255C105.777 268.691 102.147 265.062 102.147 260.585V43.4259Z" fill="white"/>
<path d="M114.157 80.0144C114.157 76.8809 116.698 74.3406 119.833 74.3406H136.676V176.393H119.833C116.698 176.393 114.157 173.853 114.157 170.719V80.0144Z" fill="#53B3CC"/>
<path fill-rule="evenodd" clip-rule="evenodd" d="M0 294.58C0 294.132 0.363012 293.769 0.810811 293.769H299.189C299.637 293.769 300 294.132 300 294.58C300 295.027 299.637 295.39 299.189 295.39H0.810811C0.363012 295.39 0 295.027 0 294.58Z" fill="#3E3D3D"/>
<path fill-rule="evenodd" clip-rule="evenodd" d="M81.0689 279.196C81.0689 278.749 81.4319 278.386 81.8797 278.386H259.781C260.229 278.386 260.592 278.749 260.592 279.196C260.592 279.644 260.229 280.007 259.781 280.007H81.8797C81.4319 280.007 81.0689 279.644 81.0689 279.196Z" fill="#3E3D3D"/>
<path d="M97.6431 278.071V294.58H43.2219L45.0985 278.071H97.6431Z" fill="#3E3D3D"/>
<path d="M62.363 180.896H75.8745V194.402H62.363V180.896Z" fill="#EFCB96"/>
<path d="M68.3682 184.273C87.2843 184.273 86.2584 166.763 83.3809 158.009L69.8695 161.01C61.4874 168.765 49.4521 184.273 68.3682 184.273Z" fill="#EFCB96"/>
<path d="M63.4889 185.022C70.9953 185.022 70.9953 179.77 70.9953 179.77C70.9953 179.77 71.2205 177.669 70.62 176.768C69.8694 175.643 67.2421 176.018 67.2421 172.641C67.2421 170.39 67.9928 168.89 70.62 168.89C73.2472 168.89 72.5526 173.096 74.3732 172.641C75.8745 172.267 75.8745 171.141 77.3758 167.013C78.5768 163.711 80.3783 162.386 81.1289 162.136C88.6353 160.635 86.7587 151.256 85.6328 149.004C84.5068 146.753 80.3783 146.378 77.3758 149.755C74.3732 153.131 72.8719 153.507 65.3655 154.257C59.3604 154.857 54.8566 159.885 54.8566 167.013V171.516C54.8566 176.768 55.2319 185.022 63.4889 185.022Z" fill="#3E3D3D"/>
<path d="M143.432 71.385C143.432 68.2515 145.973 65.7112 149.108 65.7112H245.848C248.983 65.7112 251.524 68.2515 251.524 71.385V191.355C251.524 194.489 248.983 197.029 245.848 197.029H149.108C145.973 197.029 143.432 194.489 143.432 191.355V71.385Z" fill="#F1F1F1"/>
<path d="M136.676 65.0066C136.676 61.8732 139.217 59.3329 142.352 59.3329H239.092C242.227 59.3329 244.768 61.8732 244.768 65.0066V184.977C244.768 188.11 242.227 190.65 239.092 190.65H142.352C139.217 190.65 136.676 188.11 136.676 184.977V65.0066Z" fill="white"/>
<path fill-rule="evenodd" clip-rule="evenodd" d="M135.865 65.0066C135.865 61.4255 138.769 58.5224 142.352 58.5224H239.092C242.675 58.5224 245.579 61.4255 245.579 65.0066V184.977C245.579 188.558 242.675 191.461 239.092 191.461H142.352C138.769 191.461 135.865 188.558 135.865 184.977V65.0066ZM142.352 60.1435C139.665 60.1435 137.487 62.3208 137.487 65.0066V184.977C137.487 187.662 139.665 189.84 142.352 189.84H239.092C241.779 189.84 243.957 187.662 243.957 184.977V65.0066C243.957 62.3208 241.779 60.1435 239.092 60.1435H142.352Z" fill="#3E3D3D"/>
<path fill-rule="evenodd" clip-rule="evenodd" d="M200.48 224.478H172.707V222.857H200.48V224.478ZM200.48 234.984H172.707V233.362H200.48V234.984ZM200.48 245.864H172.707V244.244H200.48V245.864ZM200.48 257.87H118.661V256.25H200.48V257.87Z" fill="#3E3D3D"/>
<path d="M122.062 193.693L121.663 194.495L128.831 198.905C129.096 198.103 130.185 196.26 132.415 195.297C135.202 194.094 136.795 190.086 138.387 187.68C139.662 185.756 138.387 184.206 137.591 183.671C137.591 182.388 136.264 181.533 135.6 181.266C135.6 179.341 133.742 179.127 132.813 179.261L136.553 173.612C137.137 172.731 136.934 171.549 136.091 170.912C135.175 170.221 133.867 170.439 133.225 171.391L126.84 180.865L125.11 180.647C124.284 180.543 123.512 181.082 123.337 181.895C122.901 183.919 122.311 186.876 122.062 188.883C121.743 191.448 121.929 193.159 122.062 193.693Z" fill="#EFCB96"/>
<path d="M162.948 78.4678C162.948 83.2337 159.084 87.0973 154.316 87.0973C149.549 87.0973 145.684 83.2337 145.684 78.4678C145.684 73.7018 149.549 69.8383 154.316 69.8383C159.084 69.8383 162.948 73.7018 162.948 78.4678Z" fill="#FAC22F"/>
<path d="M204.609 86.7221C194.7 85.5214 185.217 86.2218 181.714 86.7221L179.838 96.1019L184.717 100.979L207.236 94.6011L204.609 86.7221Z" fill="#46A4BC"/>
<path d="M164.692 93.8869L181.715 86.722C182.465 89.7236 185.918 95.7267 193.725 95.7267C201.531 95.7267 204.234 89.7236 204.609 86.722L226.063 93.9719C229.287 95.0612 231.708 97.7552 232.446 101.076L238.012 126.117L223 128.368V170.149C223 171.941 221.548 173.392 219.756 173.392H169.57C167.778 173.392 166.326 171.941 166.326 170.149V128.368L152.064 126.117L159.078 100.302C159.863 97.4141 161.933 95.0481 164.692 93.8869Z" fill="#53B3CC"/>
<path d="M135.175 35.3205H187.72L185.95 41.0703C185.217 43.451 183.017 45.0756 180.525 45.0756H142.369C139.878 45.0756 137.677 43.451 136.945 41.0703L135.175 35.3205Z" fill="#E5E5E5"/>
<path fill-rule="evenodd" clip-rule="evenodd" d="M258.279 118.988H263.909L271.04 129.87L263.909 140.75H261.094H258.279L265.411 129.87L258.279 118.988Z" fill="#F15846"/>
<path fill-rule="evenodd" clip-rule="evenodd" d="M193.725 99.5087C183.916 99.5087 179.618 93.3665 178.698 90.2122L179.476 89.9853C180.308 92.8342 184.317 98.6982 193.725 98.6982C203.119 98.6982 206.366 92.8547 206.836 90.0322L207.636 90.1655C207.106 93.3461 203.547 99.5087 193.725 99.5087ZM166.732 117.863V128.368H165.921V117.863H166.732ZM223.405 117.863V128.368H222.594V117.863H223.405Z" fill="#46A4BC"/>
<path d="M97.643 278.07C102.147 277.171 97.643 252.933 97.643 230.796L103.366 234.066C107.397 236.368 112.535 234.824 114.627 230.681L130.296 199.655L120.913 193.652L109.627 210.405C109.057 211.251 107.859 211.369 107.135 210.65C102.652 206.199 95.1452 198.87 91.6379 195.904C87.7346 192.602 80.3784 191.151 77.3758 191.026C76.2499 191.901 73.0972 193.652 69.4941 193.652C65.8911 193.652 62.238 191.901 60.8618 191.026L50.6592 194.584C46.9103 195.891 43.9666 198.843 42.6702 202.594L37.592 217.29C34.5894 227.044 30.0856 237.25 34.5894 242.052C39.0932 246.855 43.2217 245.304 44.723 243.928C44.723 255.935 44.3477 264.189 43.5971 273.193C42.8465 282.198 49.2269 277.321 67.6175 278.821C82.33 280.022 91.3877 278.571 97.643 278.07Z" fill="#53B3CC"/>
<path fill-rule="evenodd" clip-rule="evenodd" d="M71.3708 183.492C73.1136 183.492 75.0197 183.004 75.7464 182.762L76.0028 183.531C75.2282 183.79 73.231 184.303 71.3708 184.303V183.492Z" fill="#EFCB96"/>
<path fill-rule="evenodd" clip-rule="evenodd" d="M78.7029 194.004C70.1313 198.901 62.5996 196.057 59.8654 193.974L60.3568 193.33C62.8771 195.25 70.058 198.009 78.3006 193.301L78.7029 194.004ZM45.1285 243.553H44.3177V218.415H45.1285V243.553ZM92.9946 227.086L97.8738 230.463L97.4123 231.13L92.5331 227.753L92.9946 227.086ZM60.6805 260.449C71.4013 255.091 81.0625 243.799 84.5501 238.818L85.2143 239.283C81.6959 244.308 71.9406 255.728 61.0431 261.174L60.6805 260.449ZM79.7882 259.343C84.5243 256.384 86.9188 252.696 87.5105 251.276L88.2589 251.588C87.5995 253.17 85.0899 256.986 80.2179 260.03L79.7882 259.343Z" fill="#46A4BC"/>
<path d="M118.661 224.538C118.661 223.643 119.387 222.918 120.282 222.918H156.072C156.968 222.918 157.694 223.643 157.694 224.538V244.558C157.694 245.453 156.968 246.179 156.072 246.179H120.282C119.387 246.179 118.661 245.453 118.661 244.558V224.538Z" fill="#F15846"/>
</g>
</svg>
